<?xml version="1.0" encoding="UTF-8"?>
<!DOCTYPE svg PUBLIC "-//W3C//DTD SVG 1.1//EN" "http://www.w3.org/Graphics/SVG/1.1/DTD/svg11.dtd">
<svg xmlns="http://www.w3.org/2000/svg" version="1.1" width="1280px" height="1279px" style="shape-rendering:geometricPrecision; text-rendering:geometricPrecision; image-rendering:optimizeQuality; fill-rule:evenodd; clip-rule:evenodd" xmlns:xlink="http://www.w3.org/1999/xlink">
<g><path style="opacity:0.993" fill="#00acc5" d="M 698.5,1278.5 C 671.167,1278.5 643.833,1278.5 616.5,1278.5C 616.667,1223.5 616.5,1168.5 616,1113.5C 610.166,1103.16 603.833,1093.16 597,1083.5C 529.411,999.213 448.578,931.046 354.5,879C 313.566,853.758 276.399,823.592 243,788.5C 177.179,714.465 142.179,627.465 138,527.5C 135.32,456.275 143.32,386.275 162,317.5C 188.938,428.275 248.772,516.442 341.5,582C 367.794,599.595 395.128,615.595 423.5,630C 459.956,653.567 494.622,679.567 527.5,708C 592.367,768.577 628.2,843.411 635,932.5C 635.928,880.815 642.261,829.815 654,779.5C 673.878,703.879 713.378,640.713 772.5,590C 822.671,546.564 877.337,509.564 936.5,479C 1065.97,403.657 1149.13,293.157 1186,147.5C 1211.11,237.971 1219.45,329.971 1211,423.5C 1195.41,555.22 1136.24,662.387 1033.5,745C 1012.2,761.649 990.204,777.315 967.5,792C 891.054,833.5 822.221,885.333 761,947.5C 738.787,970.917 720.787,997.251 707,1026.5C 703.242,1035.86 700.576,1045.53 699,1055.5C 698.5,1129.83 698.333,1204.17 698.5,1278.5 Z M 687.5,930.5 C 694.613,906.307 705.446,883.974 720,863.5C 746.461,828.039 777.294,796.872 812.5,770C 822.167,763 831.833,756 841.5,749C 879.83,724.167 918.496,699.833 957.5,676C 1026.02,624.83 1079.18,560.996 1117,484.5C 1123.66,469.53 1129.32,454.196 1134,438.5C 1128.62,482.982 1114.62,524.649 1092,563.5C 1067.18,606.011 1036.02,643.511 998.5,676C 988.167,684.333 977.833,692.667 967.5,701C 930.65,724.59 894.316,748.923 858.5,774C 825.313,797.516 792.98,822.183 761.5,848C 739.633,866.867 719.466,887.367 701,909.5C 696.476,916.565 691.976,923.565 687.5,930.5 Z M 239.5,600.5 C 252.319,621.175 267.652,640.008 285.5,657C 310.624,679.797 336.624,701.463 363.5,722C 394.638,745.403 426.305,768.069 458.5,790C 504.305,825.822 539.472,869.989 564,922.5C 575.819,948.264 582.819,975.264 585,1003.5C 574.807,966.119 558.474,931.785 536,900.5C 512.736,867.23 485.236,837.73 453.5,812C 423.167,791.667 392.833,771.333 362.5,751C 325.787,725.289 293.954,694.455 267,658.5C 254.873,640.58 245.707,621.246 239.5,600.5 Z"/></g>
<g><path style="opacity:0.996" fill="#00adc6" d="M 587.5,218.5 C 656.255,215.227 712.422,239.893 756,292.5C 800.198,353.968 808.198,419.968 780,490.5C 749.196,554.278 698.696,591.778 628.5,603C 553.547,610.368 493.047,584.535 447,525.5C 411.325,473.785 401.658,417.452 418,356.5C 438.988,292.179 481.488,249.012 545.5,227C 559.434,223.18 573.434,220.347 587.5,218.5 Z"/></g>
</svg>
